<?xml version="1.0" encoding="utf-8"?>
<svg xmlns="http://www.w3.org/2000/svg" xmlns:xlink="http://www.w3.org/1999/xlink" version= "1.1" width="1698px" height="1214px" viewBox="-309 458 1698 1214">
<g id="layer1">
<g style="fill:rgb(0,174,199); fill-opacity:1.0; stroke-linejoin: miter">
<path d="M-309.001,456.68423C-309.3497,456.68423,-309.68414,456.82275,-309.9307,457.0693C-310.17725,457.31586,-310.31577,457.6503,-310.31577,457.999L-310.31476,1672.0C-310.31476,1672.7261,-309.72614,1673.3148,-309.0,1673.3148L1389.001,1673.3158C1389.3497,1673.3158,1389.6841,1673.1772,1389.9307,1672.9307C1390.1772,1672.6841,1390.3158,1672.3497,1390.3158,1672.001L1390.3148,458.0C1390.3148,457.27386,1389.7261,456.68524,1389.0,456.68524L-309.001,456.68423 Z"/>
</g>
</g>
<g id="layer2">
<g style="fill:rgb(0,0,0); fill-opacity:1.0; stroke-linejoin: miter">
<path d="M-94.11597,1401.7098L20.677832,1401.7103L135.47174,1401.7106Q135.47174,1421.3275,135.47174,1440.9445Q20.677832,1440.9446,-94.115974,1440.9451Q-94.11597,1421.3274,-94.11597,1401.7098 Z"/>
</g>
<g style="fill:rgb(0,0,0); fill-opacity:1.0; stroke-linejoin: miter">
<path d="M51.09114,1442.7865L51.09114,1442.7877C51.09114,1443.8256,50.891624,1444.818,50.53939,1445.7399L50.53939,1445.7408C47.35755,1454.0688,31.244987,1457.5881,16.891968,1457.5881L16.891968,1457.5889C2.5387943,1457.5881,-13.573739,1454.0686,-16.755592,1445.7395L-16.755592,1445.7407C-17.107807,1444.8176,-17.30746,1443.8254,-17.30746,1442.7864L-17.30746,1442.7874C-17.30746,1441.7478,-17.107666,1440.7554,-16.755589,1439.8335L-16.755589,1439.8342C-13.573735,1431.5044,2.5387905,1427.9854,16.891968,1427.9854L16.891968,1427.9858C31.244995,1427.9854,47.35755,1431.5044,50.539375,1439.8334L50.539375,1439.8344C50.891624,1440.756,51.09114,1441.7477,51.09114,1442.7865L51.09114,1442.7877 M42.365902,1442.7864L42.365902,1442.7876C42.365902,1442.8782,42.385464,1442.9392,42.388645,1442.9473L42.388645,1442.9485C41.669804,1441.0662,32.789352,1436.7104,16.891968,1436.7102L16.891968,1436.7112C0.994308,1436.7104,-7.886261,1441.0662,-8.604847,1442.947L-8.604847,1442.9485C-8.601685,1442.9387,-8.582233,1442.8789,-8.582233,1442.7864L-8.582233,1442.7874C-8.582233,1442.6946,-8.601685,1442.634,-8.604847,1442.6257L-8.604847,1442.627C-7.886261,1444.5073,0.994308,1448.8628,16.891975,1448.8628L16.891975,1448.8638C32.789352,1448.8628,41.669926,1444.5076,42.388645,1442.626L42.388645,1442.627C42.385464,1442.6343,42.365902,1442.6948,42.365902,1442.7864 Z"/>
</g>
<g style="fill:rgb(0,0,0); fill-opacity:1.0; stroke-linejoin: miter">
<path d="M50.94494,1459.3905L50.94494,1459.3912C50.94494,1460.4291,50.74527,1461.4215,50.393196,1462.3434L50.393196,1462.3446C47.21119,1470.6721,31.098656,1474.1914,16.745636,1474.1914L16.745636,1474.1926C2.3925807,1474.1917,-13.720078,1470.6719,-16.901928,1462.343L-16.901928,1462.3442C-17.254005,1461.4211,-17.453674,1460.4287,-17.453674,1459.3904L-17.453674,1459.3911C-17.453674,1458.3516,-17.254005,1457.3589,-16.901928,1456.4373L-16.901928,1456.438C-13.720075,1448.1084,2.3925884,1444.5889,16.745644,1444.5886L16.745644,1444.5898C31.098663,1444.5886,47.211197,1448.1084,50.393204,1456.4374L50.393204,1456.4384C50.74527,1457.3595,50.94494,1458.3517,50.94494,1459.3905L50.94494,1459.3912 M42.219685,1459.3904L42.219685,1459.3911C42.219685,1459.4822,42.23926,1459.543,42.242306,1459.551L42.242306,1459.5522C41.523586,1457.6694,32.643158,1453.3142,16.745644,1453.3142L16.745644,1453.3152C0.8481174,1453.3145,-8.0324745,1457.6697,-8.751194,1459.5508L-8.751194,1459.552C-8.74802,1459.5425,-8.728443,1459.4822,-8.728443,1459.3904L-8.728443,1459.3911C-8.728443,1459.2981,-8.74802,1459.2378,-8.751194,1459.2292L-8.751194,1459.2305C-8.0324745,1461.1106,0.8481174,1465.4666,16.745636,1465.4666L16.745636,1465.4673C32.64315,1465.4666,41.523586,1461.1106,42.242306,1459.2295L42.242306,1459.2307C42.23926,1459.238,42.219685,1459.2983,42.219685,1459.3904 Z"/>
</g>
<g style="fill:rgb(0,0,0); fill-opacity:1.0; stroke-linejoin: miter">
<path d="M51.021805,1476.5853L51.021805,1476.5863C51.021805,1477.6237,50.822273,1478.6163,50.469933,1479.5382L50.469933,1479.5394C47.288193,1487.867,31.175514,1491.3862,16.822495,1491.3862L16.822495,1491.3872C2.469466,1491.3865,-13.643197,1487.8667,-16.825062,1479.5378L-16.825062,1479.5391C-17.177269,1478.616,-17.376793,1477.6238,-17.376793,1476.585L-17.376793,1476.5859C-17.376793,1475.5464,-17.17714,1474.5535,-16.825062,1473.6321L-16.825062,1473.6328C-13.643193,1465.303,2.4694736,1461.7837,16.822495,1461.7834L16.822495,1461.7847C31.175514,1461.7834,47.28807,1465.3032,50.469933,1473.6322L50.469933,1473.6329C50.822273,1474.5538,51.021805,1475.5463,51.021805,1476.5853L51.021805,1476.5863 M42.296543,1476.5852L42.296543,1476.5862C42.296543,1476.677,42.316135,1476.7378,42.319164,1476.7458L42.319164,1476.7468C41.600445,1474.8643,32.72003,1470.5088,16.822495,1470.5088L16.822495,1470.5095C0.92497975,1470.509,-7.9556084,1474.8643,-8.674328,1476.7456L-8.674328,1476.7466C-8.671154,1476.737,-8.651581,1476.677,-8.651581,1476.585L-8.651581,1476.5859C-8.651581,1476.4932,-8.671154,1476.4324,-8.674328,1476.4241L-8.674328,1476.425C-7.9554787,1478.3052,0.92497975,1482.6614,16.822495,1482.6614L16.822495,1482.6621C32.72003,1482.6614,41.600574,1478.3054,42.319164,1476.4241L42.319164,1476.4253C42.316135,1476.4326,42.296543,1476.4932,42.296543,1476.5852 Z"/>
</g>
<g style="fill:rgb(0,0,0); fill-opacity:1.0; stroke-linejoin: miter">
<path d="M50.155823,1495.2169L50.155823,1495.2179C50.155823,1496.2555,49.95629,1497.2479,49.604073,1498.1696L49.604073,1498.171C46.422195,1506.4988,30.309547,1510.0183,15.956505,1510.0181L15.956505,1510.019C1.6034768,1510.0181,-14.509049,1506.4985,-17.691048,1498.1694L-17.691048,1498.1707C-18.043123,1497.2476,-18.242794,1496.2556,-18.242794,1495.2168L-18.242794,1495.2175C-18.242794,1494.178,-18.043123,1493.185,-17.691048,1492.2637L-17.691048,1492.2644C-14.509049,1483.9346,1.6034806,1480.4153,15.956512,1480.4153L15.956512,1480.416C30.30954,1480.4153,46.422066,1483.9348,49.604073,1492.264L49.604073,1492.2645C49.95629,1493.1854,50.155823,1494.1781,50.155823,1495.2169L50.155823,1495.2179 M41.43056,1495.2168L41.43056,1495.2178C41.43056,1495.3086,41.450283,1495.3694,41.45332,1495.3774L41.45332,1495.3784C40.734592,1493.4961,31.854042,1489.1406,15.956512,1489.1406L15.956512,1489.1411C0.05912015,1489.1406,-8.821468,1493.4958,-9.540183,1495.3772L-9.540183,1495.3784C-9.537143,1495.3689,-9.517566,1495.3086,-9.517566,1495.2168L-9.517566,1495.2175C-9.517566,1495.1248,-9.537143,1495.0642,-9.540183,1495.0559L-9.540183,1495.0569C-8.821468,1496.937,0.059116334,1501.293,15.956512,1501.2927L15.956512,1501.2937C31.85405,1501.293,40.734592,1496.937,41.45332,1495.0559L41.45332,1495.0569C41.450146,1495.0645,41.43056,1495.1248,41.43056,1495.2168 Z"/>
</g>
<g style="fill:rgb(0,0,0); fill-opacity:1.0; stroke-linejoin: miter">
<path d="M49.35598,1510.4464L49.35598,1510.4474C49.35598,1511.4852,49.15632,1512.4772,48.804108,1513.399L48.804108,1513.4003C45.62223,1521.7288,29.509714,1525.2478,15.156548,1525.2476L15.156548,1525.2485C0.8035008,1525.2476,-15.30901,1521.7285,-18.491007,1513.3989L-18.491007,1513.4001C-18.843082,1512.477,-19.042753,1511.4854,-19.042753,1510.446L-19.042753,1510.4473C-19.042753,1509.4075,-18.843082,1508.4148,-18.491005,1507.4929L-18.491005,1507.4939C-15.30901,1499.1641,0.8035046,1495.645,15.156555,1495.6448L15.156555,1495.6455C29.509577,1495.6448,45.622093,1499.1641,48.804108,1507.493L48.804108,1507.494C49.15632,1508.4149,49.35598,1509.4073,49.35598,1510.4464L49.35598,1510.4474 M40.630596,1510.4465L40.630596,1510.4475C40.630596,1510.5383,40.65031,1510.5991,40.653355,1510.6072L40.653355,1510.6082C39.934635,1508.7256,31.054214,1504.3704,15.156548,1504.3701L15.156548,1504.3711C-0.74084055,1504.3701,-9.621421,1508.7256,-10.340148,1510.6069L-10.340148,1510.6077C-10.337096,1510.5986,-10.317523,1510.5383,-10.317523,1510.446L-10.317523,1510.4473C-10.317523,1510.3542,-10.337096,1510.2937,-10.340148,1510.2852L-10.340148,1510.2864C-9.621421,1512.167,-0.74084437,1516.5225,15.156548,1516.5225L15.156548,1516.5234C31.054214,1516.5227,39.934635,1512.1672,40.653355,1510.2854L40.653355,1510.2866C40.65018,1510.294,40.630596,1510.3545,40.630596,1510.4465 Z"/>
</g>
<g style="fill:rgb(0,0,0); fill-opacity:1.0; stroke-linejoin: miter">
<path d="M48.759506,1526.3033L48.759506,1526.3043C48.759506,1527.3417,48.559853,1528.3341,48.20764,1529.2562L48.20764,1529.2574C45.025764,1537.5852,28.913263,1541.1045,14.56022,1541.1042L14.56022,1541.1052C0.20703496,1541.1042,-15.9054985,1537.585,-19.087345,1529.2561L-19.087345,1529.2571C-19.43942,1528.334,-19.639091,1527.3418,-19.639091,1526.3032L-19.639091,1526.3042C-19.639091,1525.2644,-19.43942,1524.2715,-19.087345,1523.3501L-19.087345,1523.3511C-15.905495,1515.0212,0.20704259,1511.5017,14.56022,1511.5017L14.56022,1511.5027C28.913263,1511.502,45.02562,1515.0215,48.20764,1523.3502L48.20764,1523.3512C48.559853,1524.2719,48.759506,1525.2643,48.759506,1526.3033L48.759506,1526.3043 M40.03413,1526.3035L40.03413,1526.3044C40.03413,1526.3953,40.053852,1526.4563,40.056896,1526.4644L40.056896,1526.4651C39.338177,1524.5823,30.457726,1520.2273,14.56022,1520.227L14.56022,1520.228C-1.3373064,1520.227,-10.217895,1524.5825,-10.936614,1526.4641L-10.936614,1526.4648C-10.933436,1526.4553,-10.913863,1526.3953,-10.913863,1526.3032L-10.913863,1526.3042C-10.913863,1526.2112,-10.933436,1526.1506,-10.936614,1526.1421L-10.936614,1526.1433C-10.217895,1528.0234,-1.3373064,1532.3796,14.56022,1532.3794L14.56022,1532.3799C30.457726,1532.3796,39.338177,1528.0234,40.056896,1526.1426L40.056896,1526.1436C40.053715,1526.1509,40.03413,1526.2114,40.03413,1526.3035 Z"/>
</g>
<g style="fill:rgb(0,0,0); fill-opacity:1.0; stroke-linejoin: miter">
<path d="M48.613174,1542.9067L48.613174,1542.908C48.613174,1543.9456,48.413506,1544.9377,48.061428,1545.8597L48.061428,1545.861C44.8794,1554.189,28.767042,1557.708,14.413871,1557.7078L14.413871,1557.709C0.06082531,1557.708,-16.051699,1554.1887,-19.233557,1545.8596L-19.233557,1545.8608C-19.585783,1544.9377,-19.78543,1543.9456,-19.78543,1542.9067L-19.78543,1542.908C-19.785429,1541.8679,-19.585632,1540.8755,-19.233557,1539.9536L-19.233557,1539.9546C-16.051697,1531.6248,0.060829133,1528.1052,14.41388,1528.105L14.41388,1528.1062C28.766932,1528.1052,44.87941,1531.6248,48.06143,1539.9536L48.06143,1539.9546C48.413506,1540.8755,48.613174,1541.8674,48.613174,1542.9067L48.613174,1542.908 M39.887936,1542.9067L39.887936,1542.908C39.887936,1542.9988,39.907505,1543.0593,39.910686,1543.0676L39.910686,1543.0684C39.19183,1541.186,30.311386,1536.8306,14.41388,1536.8303L14.41388,1536.8313C-1.4836648,1536.8303,-10.36423,1541.1863,-11.082945,1543.0676L-11.082945,1543.0681C-11.079645,1543.0593,-11.060202,1542.9985,-11.060202,1542.9067L-11.060202,1542.908C-11.060202,1542.815,-11.079771,1542.7544,-11.082945,1542.7458L-11.082945,1542.7466C-10.36423,1544.6277,-1.4836646,1548.9827,14.413871,1548.9824L14.413871,1548.9834C30.311377,1548.9827,39.191967,1544.6277,39.910686,1542.7461L39.910686,1542.7468C39.907505,1542.7544,39.887936,1542.815,39.887936,1542.9067 Z"/>
</g>
<g style="fill:rgb(0,0,0); fill-opacity:1.0; stroke-linejoin: miter">
<path d="M48.690037,1566.5114L48.690037,1566.5123C48.690037,1578.0804,29.467764,1582.792,14.490745,1582.792L14.490745,1582.7932C-0.48614472,1582.7922,-19.708563,1578.0803,-19.70856,1566.5115L-19.70856,1566.5125C-19.708559,1554.9424,-0.48628205,1550.2307,14.490737,1550.2307L14.490737,1550.2312C29.467764,1550.231,48.690037,1554.9425,48.690037,1566.5114L48.690037,1566.5123 M39.96479,1566.5115L39.96479,1566.5125C39.96479,1564.9167,32.47047,1558.956,14.490745,1558.956L14.490745,1558.9573C-3.4889886,1558.956,-10.983331,1564.9165,-10.983331,1566.5115L-10.983331,1566.5125C-10.983331,1568.1072,-3.4889925,1574.0667,14.490745,1574.0667L14.490745,1574.0676C32.4706,1574.0667,39.96479,1568.1072,39.96479,1566.5115 Z"/>
</g>
<g style="fill:rgb(0,0,0); fill-opacity:1.0; stroke-linejoin: miter">
<path d="M47.824062,1581.527L47.824062,1581.5284C47.824062,1583.4962,46.93317,1585.0642,45.953793,1586.157L45.953793,1586.1582C41.39299,1591.2456,27.337645,1593.5344,13.624751,1593.5344L13.624751,1593.5356C-0.088428445,1593.5347,-14.143096,1591.2456,-18.704304,1586.157L-18.704182,1586.158C-19.683556,1585.0645,-20.574415,1583.4968,-20.574415,1581.5271L-20.574415,1581.5283C-20.574415,1579.5576,-19.68369,1577.9905,-18.704048,1576.8972L-18.704182,1576.8984C-14.143352,1571.8088,-0.08789439,1569.5203,13.624755,1569.52L13.624755,1569.521C27.33753,1569.52,41.393112,1571.8091,45.953793,1576.8975L45.953663,1576.8984C46.93305,1577.9902,47.824062,1579.5575,47.824062,1581.527L47.824062,1581.5284 M39.098923,1581.5271L39.098923,1581.5283C39.098923,1582.3152,39.466904,1582.7329,39.456314,1582.7207L39.456314,1582.7219C37.93193,1581.0203,28.257223,1578.2451,13.624755,1578.2451L13.624755,1578.2463C-1.0077242,1578.2454,-10.682309,1581.0203,-12.206699,1582.7207L-12.206833,1582.7219C-12.217148,1582.7329,-11.84932,1582.3152,-11.849317,1581.5271L-11.849317,1581.5283C-11.849317,1580.739,-12.217144,1580.3218,-12.206696,1580.3335L-12.206696,1580.3345C-10.682054,1582.0347,-1.0079988,1584.8091,13.624751,1584.8091L13.624751,1584.8103C28.257345,1584.8091,37.93193,1582.0342,39.456314,1580.3335L39.456314,1580.3345C39.466766,1580.3218,39.098923,1580.739,39.098923,1581.5271 Z"/>
</g>
<g style="fill:rgb(0,0,0); fill-opacity:1.0; stroke-linejoin: miter">
<path d="M47.024082,1599.1399L47.024082,1599.1414C47.024082,1601.7493,45.23585,1603.3135,44.298565,1603.977L44.298695,1603.9768C39.712593,1607.2231,26.408157,1608.7639,12.824917,1608.7639L12.824917,1608.7651C-0.7584605,1608.7639,-14.062915,1607.2231,-18.649008,1603.9766L-18.648874,1603.9768C-19.586044,1603.3132,-21.374374,1601.7493,-21.374374,1599.1399L-21.374374,1599.1411C-21.374372,1596.5315,-19.586042,1594.9666,-18.648872,1594.303L-18.649128,1594.3037C-14.063033,1591.0571,-0.75830793,1589.5159,12.824921,1589.5159L12.824921,1589.5171C26.408165,1589.5156,39.712723,1591.0571,44.29881,1594.3037L44.298565,1594.3032C45.2356,1594.9663,47.024082,1596.532,47.024082,1599.1399L47.024082,1599.1414 M38.298965,1599.1399L38.298965,1599.1411C38.298965,1600.8689,39.4747,1601.5786,39.257576,1601.4248L39.257446,1601.4258C37.37635,1600.093,27.20706,1598.2412,12.824921,1598.2415L12.824921,1598.2422C-1.5574865,1598.2415,-11.726666,1600.093,-13.607753,1601.4248L-13.607886,1601.4258C-13.825019,1601.5786,-12.649281,1600.8689,-12.649281,1599.1399L-12.649281,1599.1411C-12.649281,1597.4114,-13.825019,1596.7014,-13.607886,1596.8552L-13.607886,1596.8564C-11.726792,1598.187,-1.5572157,1600.0388,12.824921,1600.0388L12.824921,1600.0396C27.20706,1600.0386,37.376617,1598.187,39.257576,1596.8552L39.257576,1596.8564C39.4747,1596.7014,38.298965,1597.4119,38.298965,1599.1399 Z"/>
</g>
<g style="fill:rgb(0,0,0); fill-opacity:1.0; stroke-linejoin: miter">
<path d="M1227.9634,1604.2594L1221.6641,1605.7792Q1176.879,1610.3724,959.5838,1613.126Q740.78424,1615.8777,444.28104,1615.3573Q161.30695,1614.6307,-8.351436,1611.1035Q-62.7118,1609.9636,-97.90413,1608.6191L-127.4824,1607.2368Q-151.85756,1605.81,-152.1316,1604.2595Q-144.73193,1599.5,49.97877,1596.3392Q244.68962,1593.1791,537.9165,1593.0593Q831.1427,1593.179,1025.8536,1596.3395Q1220.564,1599.5004,1227.9634,1604.2594 Z"/>
</g>
<g style="fill:rgb(0,0,0); fill-opacity:1.0; stroke-linejoin: miter">
<path d="M242.44537,1113.9166L244.43893,1138.1375L237.0899,1139.9061L226.51012,1144.6107Q220.83156,1148.5846,217.42366,1149.5363Q215.54265,1150.1193,213.43779,1150.2491Q206.18333,1150.2687,205.5784,1150.3912Q202.93547,1150.8519,202.05263,1151.246Q199.83478,1152.4406,198.65025,1154.1212Q197.78793,1155.1534,194.32553,1161.1385L193.11339,1162.747Q191.78482,1164.2709,190.0245,1164.6635Q185.53798,1165.3876,181.95314,1161.0751Q180.67638,1160.0033,179.94302,1149.4945Q179.22203,1141.1652,180.18011,1137.5485Q181.14337,1133.3866,183.6873,1130.243Q186.88661,1126.7047,192.20686,1123.4032Q195.04477,1121.6368,198.0479,1119.9454Q205.41202,1117.2413,206.87321,1115.8634L208.08067,1114.5885Q209.94652,1110.5717,210.13237,1110.454Q210.92796,1109.4037,212.56493,1108.2828Q215.06743,1106.8546,216.8318,1106.5118Q221.18257,1105.9047,223.25383,1106.3873Q228.73592,1107.1571,242.44537,1113.9166 Z"/>
</g>
<g style="fill:rgb(0,0,0); fill-opacity:1.0; stroke-linejoin: miter">
<path d="M622.48535,1030.536L622.3435,1026.4286L620.36316,1000.7458Q627.28516,1000.02045,632.7228,996.2619Q634.38165,995.23346,638.6711,991.11993Q641.7556,988.0966,647.5748,981.5634Q648.95483,980.52234,649.4276,979.94226Q650.45605,978.87524,650.7352,976.96326L650.7717,975.51904Q649.95715,968.43384,650.22034,968.44226Q650.1371,966.9026,651.50684,965.1427Q653.0491,963.4071,656.97705,963.12634Q659.5853,962.8882,661.69666,964.8419Q662.67017,965.9741,663.34546,967.3406L664.7809,971.78235Q666.2162,976.22437,666.5276,981.07153Q666.79236,985.93524,664.9967,991.54095Q663.19775,997.63007,656.7152,1010.08844Q656.32446,1011.2673,656.09973,1012.67365Q654.9353,1021.32355,654.04956,1024.6438Q652.676,1029.7561,650.9601,1031.4963Q648.47046,1034.2778,643.4513,1034.0132Q642.9442,1034.4866,622.48535,1030.536 Z"/>
</g>
<g style="fill:rgb(0,0,0); fill-opacity:1.0; stroke-linejoin: miter">
<path d="M373.63672,950.00836L371.49872,950.84393Q351.9136,958.4432,347.01492,961.2332Q345.254,962.11896,342.02518,964.2116Q333.24893,970.44305,331.517,971.50323Q329.12103,973.0549,326.75208,974.22235Q323.73618,975.9172,319.0895,976.22064Q315.09702,976.8475,298.28857,970.7149L289.7379,961.3016L293.11844,954.1977L301.84598,950.9849L306.32452,952.10333L310.15463,951.76715L313.40298,955.1513L313.43512,958.3234L321.32623,962.2935L340.6676,944.1297L346.4163,938.9217Q354.34924,932.0354,359.2001,929.473Q363.79163,926.631,373.2538,924.0519Q380.31473,922.13745,398.7704,919.2938L373.63672,950.00836 Z"/>
</g>
<g style="fill:rgb(0,0,0); fill-opacity:1.0; stroke-linejoin: miter">
<path d="M336.0502,1010.5871L335.87506,1009.9312Q334.4533,1005.74274,336.56796,1002.0201Q346.96555,988.9887,349.28537,984.85736L370.1782,948.1425Q375.98987,938.78314,378.40573,935.9686Q385.8169,924.5066,414.94586,906.5053Q430.4572,896.7807,436.53128,895.48615Q443.93057,893.6737,454.92114,894.67706L460.77145,893.33417L477.41705,922.5593L470.3614,926.1604Q471.80725,929.76636,470.88696,931.6024Q470.50256,932.7202,468.25037,935.1975Q458.32535,957.537,454.17566,965.36316Q449.5827,973.99225,447.13397,977.0839Q444.78314,980.5981,439.315,985.64105Q435.647,989.05,425.35965,996.1452Q420.71497,1002.112,418.4739,1004.01105Q417.7753,1004.9648,410.7947,1009.3984L408.7664,1011.23175Q405.452,1015.16376,403.57623,1024.4541L336.0502,1010.5871 Z"/>
</g>
<g style="fill:rgb(0,0,0); fill-opacity:1.0; stroke-linejoin: miter">
<path d="M621.55334,1002.9582L628.5991,1001.94586Q636.7165,1012.8299,635.153,1016.68134Q632.83105,1022.90497,623.1194,1028.1132Q618.01953,1026.5079,607.44165,1027.5802Q598.266,1028.4567,558.1772,1035.8148Q550.14813,1037.0514,546.6053,1037.0236Q539.7315,1036.9767,534.2642,1035.756L512.1656,1030.6632L505.59567,1029.4178Q498.1152,1028.4293,494.61368,1029.5228Q492.7388,1030.0045,491.11246,1030.6166L456.40778,1057.3976Q453.6038,1059.5607,434.777,1065.0356Q424.04993,1073.2117,403.0951,1083.4663Q400.70844,1081.6665,401.29327,1077.3989L406.23932,1054.4014Q406.98557,1054.0872,405.6633,1036.603Q405.84317,1033.0586,408.40292,1023.96063Q416.8518,1016.40594,426.3802,1013.36053Q433.94077,1010.632,444.64362,1007.7962Q483.89783,997.9091,488.88327,995.92755Q491.8464,995.09515,494.61624,994.89435Q498.72427,994.59283,504.1862,996.2504Q510.56815,998.13885,522.4062,1003.45917L571.39575,1006.596Q593.84143,1007.82855,601.9203,1007.1027Q610.56055,1006.6165,621.55334,1002.9582 Z"/>
</g>
<g style="fill:rgb(0,0,0); fill-opacity:1.0; stroke-linejoin: miter">
<path d="M377.1374,1045.9714L377.89636,1047.3025Q383.01495,1055.6936,384.5383,1064.3828Q386.03656,1071.9021,385.06406,1092.5979L379.83432,1123.8508L377.30106,1133.4749Q373.22134,1146.2473,367.19656,1148.7529Q361.2338,1152.6708,340.75208,1150.4556L328.43906,1145.2488Q316.1354,1146.7922,306.32312,1145.5979Q301.92236,1145.0073,297.17786,1143.7749L274.17972,1137.3027Q267.991,1135.884,262.8124,1135.4976Q251.48102,1134.5662,237.20038,1138.3812L235.10272,1125.7875L228.57655,1125.5219Q228.41188,1115.1371,232.44127,1114.1329Q233.71935,1113.734,235.87408,1113.9264L240.95566,1114.809Q240.63965,1115.0404,240.9856,1115.1237Q241.86307,1115.1273,242.60144,1115.0021Q275.62094,1108.4539,289.5013,1106.7703Q303.79117,1104.9285,313.37534,1106.0457Q324.55298,1107.3093,335.9623,1112.9822Q333.22675,1105.7178,332.3144,1099.6741Q331.7585,1098.7307,331.51,1078.7634Q331.26892,1075.2183,329.84332,1069.2891Q332.87778,1061.3496,335.46887,1057.3628Q342.28366,1046.5144,358.53522,1042.1553Q371.5219,1038.3333,377.1374,1045.9714 Z"/>
</g>
<g style="fill:rgb(0,0,0); fill-opacity:1.0; stroke-linejoin: miter">
<path d="M329.54788,1071.0952L328.9762,1069.3347Q322.77637,1052.6819,324.9481,1037.7698Q325.50726,1032.7253,327.4581,1026.7991Q328.06836,1024.665,331.53757,1018.67206L332.28955,1016.67694Q332.9714,1014.64923,333.14557,1009.2281Q335.62888,1007.498,336.6214,1006.9405Q340.9298,1004.2514,347.35898,1003.44037Q356.13116,1002.5966,362.65134,1004.2127Q367.13065,1005.04987,374.54892,1008.8427Q383.20468,1013.64435,389.63297,1018.107Q392.73932,1019.9194,394.02905,1020.35626Q398.77924,1022.1285,404.88855,1021.51996L403.97415,1024.4661L408.8667,1023.186Q407.98242,1029.6536,407.64108,1033.918L405.69385,1061.4646Q404.82736,1070.5146,403.1103,1083.095L384.62457,1087.8262Q386.20325,1071.3906,380.62448,1057.2817Q375.9146,1046.0986,365.91714,1044.4563Q354.09,1042.9673,344.43085,1050.2256Q336.17914,1056.3484,329.54788,1071.0952 Z"/>
</g>
<g style="fill:rgb(0,0,0); fill-opacity:1.0; stroke-linejoin: miter">
<path d="M463.4729,936.13245L465.1477,936.2484Q475.8333,936.8965,479.48413,938.2927Q482.83267,938.6758,518.59644,955.2207L547.1512,962.38477Q561.80035,960.3556,565.3281,960.60803Q571.64685,960.7804,573.41907,962.07825Q576.0713,963.6102,577.1019,966.2539Q577.9916,968.1566,578.6626,972.83L580.5414,978.4211L585.45044,979.62787L584.5386,983.58624L579.438,984.99713L572.3854,990.8807L563.6278,991.966L562.2773,988.1181L559.0273,990.05L556.5892,985.7056Q552.4405,984.9156,550.24347,983.8027Q547.6495,982.367,545.6619,979.1091Q536.72894,974.8017,534.2813,974.46027Q529.7515,973.4649,525.1357,973.40704Q520.3128,973.1689,504.4514,973.69965L490.27615,972.68835Q478.47437,971.9855,467.77997,968.5935L446.00308,955.30115L463.4729,936.13245 Z"/>
</g>
<g style="fill:rgb(0,0,0); fill-opacity:1.0; stroke-linejoin: miter">
<path d="M396.622,931.3845L396.62192,931.38513L396.6217,931.3845L396.62213,931.38513 Z"/>
</g>
<g style="fill:rgb(0,0,0); fill-opacity:1.0; stroke-linejoin: miter">
<path d="M242.35306,1112.1547L242.35318,1112.1552L244.1351,1158.0708Q286.4871,1151.898,328.839,1145.7239L242.35306,1112.1547 Z"/>
</g>
<g style="fill:rgb(0,0,0); fill-opacity:1.0; stroke-linejoin: miter">
<path d="M606.87244,999.6578L606.87244,999.65814L613.3086,1043.149Q536.55914,1041.4318,459.8094,1039.7142Q480.32233,1019.358,500.83542,999.0015L606.87244,999.6578 Z"/>
</g>
<g style="fill:rgb(0,0,0); fill-opacity:1.0; stroke-linejoin: miter">
<path d="M363.706,964.757L300.14993,1054.2188L372.51392,1074.7627Q422.47665,1021.61896,442.69522,993.0273Q455.46658,974.37067,459.2797,960.82544Q462.98334,949.23804,463.49573,931.8922L363.706,964.757 Z"/>
</g>
<g style="fill:rgb(0,0,0); fill-opacity:1.0; stroke-linejoin: miter">
<path d="M542.16394,956.10376L542.16394,956.10486L537.2244,982.37897Q491.8502,975.5107,446.47617,968.6428Q453.49362,953.42615,460.51123,938.2096L542.16394,956.10376 Z"/>
</g>
<g style="fill:rgb(0,0,0); fill-opacity:1.0; stroke-linejoin: miter">
<path d="M325.02274,957.2286L325.02283,957.22906L334.49393,978.6159Q357.4993,961.96063,380.50464,945.30536Q375.7815,936.3966,371.0584,927.48804L325.02274,957.2286 Z"/>
</g>
<g style="fill:rgb(0,0,0); fill-opacity:1.0; stroke-linejoin: miter">
<path d="M488.8209,837.07196Q481.30942,834.27423,475.44934,836.5573Q474.656,836.6403,466.651,840.87024Q457.2016,844.0558,456.47552,844.8362Q452.88644,846.93854,450.92804,850.8554Q444.9149,863.76465,446.73938,882.445Q447.1535,886.405,447.9642,890.70013L456.07227,899.82574Q477.84222,892.64087,486.2831,886.2401Q490.59927,883.144,494.70816,878.41Q497.17227,875.78503,504.6246,865.117Q505.84518,863.5113,507.06522,862.253Q509.86716,859.2495,513.9387,857.8977Q513.79236,852.6363,507.82907,847.92487Q498.7634,840.77576,488.8536,837.08417 Z"/>
</g>
<g style="fill:rgb(0,0,0); fill-opacity:1.0; stroke-linejoin: miter">
<path d="M506.7933,860.9411Q497.19846,861.07263,495.35373,863.34216Q493.52518,864.98285,493.63834,870.4761L487.69925,874.20447L485.12833,882.4253L480.84048,882.11993Q479.66327,874.71405,478.5747,873.1062Q477.33893,871.05756,474.7375,871.9618Q471.59167,873.0269,470.09753,875.3667Q469.03198,876.81177,468.98254,881.93317Q468.72443,882.83777,467.8269,883.65186Q466.63446,885.21106,453.38,891.9078L472.36823,919.38916L483.15897,914.22437L490.3502,913.4319Q497.62827,916.6312,499.36838,915.37366Q501.35745,914.5338,500.73,906.8757Q503.48154,903.77106,503.4998,902.54974Q503.7186,901.13776,501.47897,899.2126Q504.76755,899.46704,505.48282,898.38367Q506.41336,897.415,506.30942,893.10486Q511.98752,893.6996,511.92813,892.0232Q512.0718,891.2132,511.2003,889.35284L506.68112,880.7479L506.83237,878.47986Q508.4103,875.8772,508.34042,872.87476Q508.41513,869.99915,506.80032,860.98096 Z"/>
</g>
<g style="fill:rgb(250,87,87); fill-opacity:0.07450981; stroke-linejoin: miter">
<path d="M477.2658,900.14185L472.00293,919.0343L489.4573,912.9873Q483.9257,909.0262,481.6476,906.54474Q479.45245,904.23474,477.27423,900.1576 Z"/>
</g>
<g style="fill:rgb(0,0,0); fill-opacity:0.99607843; stroke-linejoin: miter">
<path d="M511.46127,869.2117L511.46024,869.2128L511.4608,869.2135L511.46127,869.2117 Z"/>
</g>
<g>
<g style="fill:rgb(0,0,0); fill-opacity:1.0; stroke-linejoin: miter">
<path d="M287.83777,1438.3389Q299.35687,1438.3389,307.74194,1446.7129Q316.1342,1454.745,316.142,1466.6266Q316.14954,1478.1588,307.76794,1486.5511Q299.38644,1494.9437,287.85425,1494.9513L244.17183,1494.9799L244.13478,1438.3677L287.8172,1438.3389Q287.82748,1438.3389,287.83777,1438.3389 Z M525.7504,1363.7482L451.66504,1363.7968L451.82162,1603.1761L525.907,1603.1278L525.7504,1363.7482 Z M886.03784,1355.8242L799.0796,1442.8966L799.0277,1363.5695L724.9423,1363.6178L725.0988,1602.9973L799.1842,1602.949L799.1306,1520.8262L886.2027,1607.7842L938.5873,1555.3312L865.1528,1481.6432L938.4912,1408.209L886.03784,1355.8242 Z M647.43066,1359.8246Q647.39514,1359.8246,647.3596,1359.8246Q627.4406,1359.8378,608.22534,1367.5385Q589.3594,1374.8895,573.99304,1389.926Q558.97595,1404.9626,551.30054,1424.188Q543.62506,1443.4133,543.638,1463.3325Q543.65106,1483.2517,551.35144,1502.1174Q559.052,1520.9834,574.08875,1536.3497Q575.13806,1537.7467,576.53687,1539.1437Q577.93555,1540.5406,578.98474,1541.9376Q579.6842,1542.6361,580.38354,1543.3346Q581.083,1544.0333,581.78235,1544.7318Q583.18097,1546.1284,584.5798,1547.5254Q585.62885,1548.5732,587.0273,1549.6206L546.1672,1590.1846Q555.2591,1599.2646,566.44464,1603.8002Q577.63043,1608.3358,589.163,1609.0272Q590.21136,1609.0265,591.2597,1609.0258Q591.9587,1609.0255,593.00714,1609.0245Q605.5876,1609.0165,617.8157,1604.4655Q629.69434,1599.9148,639.4727,1590.1233Q648.9018,1580.3323,653.7862,1568.0981Q658.6708,1556.2131,658.6626,1543.6328Q658.6544,1531.0522,653.754,1518.8245Q649.20337,1506.9458,639.412,1497.1672L626.4736,1484.2458Q622.2774,1480.0552,620.177,1474.4651Q618.07654,1468.8752,618.0729,1463.2839Q618.069,1457.343,620.16235,1452.0999Q622.2557,1446.8567,626.44635,1442.6604Q630.637,1438.1145,636.2268,1436.014Q641.8168,1433.9137,647.4082,1433.9098Q648.1072,1433.9095,649.1555,1433.9088Q649.8544,1433.9083,650.55334,1433.9078Q655.44617,1434.6036,659.9906,1436.6974Q664.5349,1438.7911,668.032,1442.6329L720.41644,1389.8302Q705.3798,1374.8134,686.1545,1367.1378Q667.3125,1359.8246,647.43066,1359.8246 Z M287.8462,1363.904Q287.80734,1363.904,287.76852,1363.904L170.00067,1363.9811L170.15729,1603.3607L244.24272,1603.3121L244.22029,1569.0653L244.9192,1569.0646Q259.60565,1583.0333,277.08502,1592.807Q294.56418,1602.2308,313.43817,1607.111L313.78745,1606.7611Q323.92355,1609.5504,334.40826,1610.9413Q344.842,1612.3253,355.27472,1612.3253Q355.32574,1612.3253,355.3768,1612.3253Q359.91977,1612.3224,364.4625,1611.9701Q369.00546,1611.9672,373.548,1611.265Q389.2725,1609.5074,404.99475,1604.2555Q420.36777,1599.3529,435.03958,1590.9564L397.60562,1527.0299Q388.8723,1531.9279,379.43878,1534.7299Q370.3546,1537.5314,360.9197,1538.2365Q374.53946,1524.2494,382.5649,1505.7225Q390.24112,1487.5455,390.22745,1466.578Q390.1995,1423.9441,360.12634,1393.9104Q330.08075,1363.904,287.8462,1363.904 Z"/>
</g>
</g>
<g style="fill:rgb(0,0,0); fill-opacity:1.0; stroke-linejoin: miter">
<path d="M229.64674,1380.2206L229.64674,1380.2211L241.20624,1304.1459Q250.21048,1345.1088,259.2148,1386.0715L229.64674,1380.2206"/>
</g>
<g style="fill:rgb(0,0,0); fill-opacity:1.0; stroke-linejoin: miter">
</g>
<g style="fill:rgb(0,0,0); fill-opacity:1.0; stroke-linejoin: miter">
<path d="M472.06128,1376.2076L472.06128,1376.2084L483.62085,1300.133Q492.6251,1341.096,501.62936,1382.059L472.06128,1376.2076"/>
</g>
<g style="fill:rgb(0,0,0); fill-opacity:1.0; stroke-linejoin: miter">
<path d="M592.2864,1376.2079L592.2864,1376.2086L603.846,1300.133Q612.8504,1341.0962,621.85455,1382.059L592.2864,1376.2079"/>
</g>
<g style="fill:rgb(0,0,0); fill-opacity:1.0; stroke-linejoin: miter">
<path d="M744.0742,1372.7245L744.0742,1372.725L755.6339,1296.6498Q764.6383,1337.6129,773.6426,1378.5756L744.0742,1372.7245"/>
</g>
<g style="fill:rgb(0,0,0); fill-opacity:1.0; stroke-linejoin: miter">
<path d="M872.8848,1389.0837L872.8848,1389.0845L884.4442,1313.009Q893.4485,1353.9719,902.45276,1394.9348L872.8848,1389.0837"/>
</g>
<g style="fill:rgb(0,0,0); fill-opacity:1.0; stroke-linejoin: miter">
<path d="M325.74445,1410.1323L325.74445,1410.133L337.30396,1334.0575Q346.3083,1375.0203,355.31262,1415.9834L325.74445,1410.1323"/>
</g>
<g style="fill:rgb(0,0,0); fill-opacity:1.0; stroke-linejoin: miter">
<path d="M186.863,1390.5345L186.863,1390.5353L198.42255,1314.4601Q207.42682,1355.423,216.43112,1396.3859L186.863,1390.5345"/>
</g>
<g style="fill:rgb(253,217,8); fill-opacity:1.0; stroke-linejoin: miter">
<path d="M951.2248,1234.5354L952.0129,1219.8718Q958.42523,1175.4987,992.0691,1148.4954Q1025.9492,1121.5079,1072.4111,1125.8973Q1116.7833,1132.3077,1143.7877,1165.9526Q1152.4413,1176.8281,1158.1228,1189.717L1162.9299,1202.9796Q1166.9285,1216.6808,1167.1714,1231.6315Q1166.6295,1277.5306,1136.5707,1308.4081Q1106.5125,1339.2837,1060.6466,1341.0588Q1014.749,1340.5168,983.8725,1310.459Q952.9974,1280.4011,951.2248,1234.5354 Z"/>
</g>
<g style="fill:rgb(238,170,1); fill-opacity:1.0; stroke-linejoin: miter">
<path d="M968.122,1234.0354L968.789,1221.667Q974.1984,1184.2394,1002.5757,1161.461Q1031.1534,1138.6979,1070.3445,1142.4005Q1107.7703,1147.8085,1130.5497,1176.1887Q1137.8477,1185.3625,1142.6389,1196.232L1146.6952,1207.4198Q1150.0674,1218.9757,1150.2723,1231.5873Q1149.8157,1270.3024,1124.4609,1296.3461Q1099.1083,1322.3923,1060.4194,1323.8889Q1021.7058,1323.4307,995.66235,1298.0776Q969.61957,1272.7236,968.122,1234.0354 Z"/>
</g>
<g style="fill:rgb(255,183,13); fill-opacity:1.0; stroke-linejoin: miter">
<path d="M970.3483,1233.9714L970.9986,1221.9038Q976.27594,1185.3917,1003.95996,1163.1708Q1031.8389,1140.9628,1070.0721,1144.5748Q1106.5837,1149.851,1128.806,1177.5369Q1135.9253,1186.4878,1140.6003,1197.091L1144.5568,1208.0057Q1147.8472,1219.2792,1148.0474,1231.5831Q1147.6014,1269.3517,1122.8667,1294.7589Q1098.1338,1320.1682,1060.3901,1321.6279Q1022.62244,1321.1814,997.2156,1296.4482Q971.80865,1271.7136,970.3483,1233.9714 Z"/>
</g>
<g style="fill:rgb(238,170,1); fill-opacity:1.0; stroke-linejoin: miter">
<path d="M1051.0022,1183.8145L1051.002,1192.9719Q1043.3474,1196.1149,1038.5636,1202.9508Q1033.7798,1209.7838,1033.7798,1218.5323Q1033.7798,1224.1366,1035.9663,1229.1937Q1038.1533,1234.1146,1041.844,1237.8055Q1045.534,1241.4957,1050.592,1243.6825Q1055.5128,1245.8698,1061.117,1245.8698L1061.9371,1245.8702Q1063.5775,1246.1432,1064.6708,1247.3734Q1065.764,1248.6039,1065.764,1250.3802Q1065.7644,1252.2943,1064.397,1253.6605Q1063.0304,1255.028,1061.1163,1255.0282Q1059.2031,1255.0282,1057.8363,1253.6615Q1056.4689,1252.2941,1056.4689,1250.3802L1033.7794,1250.3815Q1033.7798,1254.7543,1035.146,1258.7181Q1036.3765,1262.5458,1038.7,1265.9633Q1040.8862,1269.2433,1044.0305,1271.8402Q1047.1742,1274.3004,1051.0017,1275.8041L1051.0017,1286.192L1073.9658,1286.1932L1073.9652,1274.5741Q1080.526,1271.0194,1084.4905,1264.5958Q1088.4545,1258.3087,1088.4542,1250.3807Q1088.4539,1244.7765,1086.2671,1239.7191Q1084.0801,1234.798,1080.3898,1231.1083Q1076.6992,1227.4176,1071.6423,1225.2299Q1066.721,1223.0433,1061.117,1223.0436L1060.2969,1223.0436Q1058.6565,1222.7699,1057.5632,1221.4032Q1056.4697,1220.1727,1056.4697,1218.5321Q1056.4697,1216.6185,1057.8365,1215.1149Q1059.2031,1213.7484,1061.1163,1213.7484Q1063.0306,1213.7484,1064.3978,1215.2523Q1065.7646,1216.6183,1065.7646,1218.5326L1088.4536,1218.5338Q1088.4536,1210.6049,1084.4911,1204.18Q1080.5262,1197.7562,1073.9652,1194.2026L1073.9655,1183.8147 Z"/>
</g>
<g style="fill:rgb(253,217,8); fill-opacity:1.0; stroke-linejoin: miter">
<path d="M1049.0789,1184.9617L1049.0789,1194.1194Q1041.4241,1197.2633,1036.6405,1204.0975Q1031.8563,1210.9318,1031.8561,1219.6796Q1031.8561,1225.2843,1034.0432,1230.3422Q1036.23,1235.2621,1039.9205,1238.9528Q1043.6115,1242.6432,1048.6683,1244.8302Q1053.5891,1247.0182,1059.1937,1247.0182L1060.0132,1247.0182Q1061.6537,1247.2909,1062.7477,1248.5214Q1063.8407,1249.7516,1063.841,1251.5284Q1063.841,1253.442,1062.4739,1254.809Q1061.1073,1256.1757,1059.1937,1256.1757Q1057.2795,1256.1757,1055.9128,1254.8087Q1054.546,1253.442,1054.546,1251.5284L1031.8561,1251.5284Q1031.8561,1255.902,1033.2233,1259.8656Q1034.4531,1263.6937,1036.7769,1267.1105Q1038.9634,1270.391,1042.1074,1272.9884Q1045.2513,1275.4481,1049.0786,1276.9523L1049.0789,1287.3405L1072.0421,1287.3407L1072.0421,1275.7216Q1078.6031,1272.1678,1082.5669,1265.7438Q1086.5314,1259.4567,1086.5314,1251.5287Q1086.5311,1245.9244,1084.344,1240.8668Q1082.1572,1235.9459,1078.4673,1232.2557Q1074.7756,1228.5643,1069.7195,1226.3783Q1064.7981,1224.191,1059.1937,1224.1913L1058.3733,1224.1923Q1056.7328,1223.9178,1055.6395,1222.5507Q1054.5463,1221.3207,1054.5463,1219.68Q1054.5463,1217.767,1055.9132,1216.2626Q1057.2795,1214.8956,1059.1935,1214.8956Q1061.1075,1214.8956,1062.4741,1216.3998Q1063.8413,1217.7665,1063.841,1219.68L1086.5308,1219.6813Q1086.5308,1211.7528,1082.5671,1205.3285Q1078.6031,1198.9042,1072.043,1195.35L1072.0424,1184.9617 Z"/>
</g>
</g>
</svg>